<?xml version="1.0" encoding="iso-8859-1"?>
<!-- Generator: Adobe Illustrator 19.0.0, SVG Export Plug-In . SVG Version: 6.00 Build 0)  -->
<svg version="1.1" id="Layer_1" xmlns="http://www.w3.org/2000/svg" xmlns:xlink="http://www.w3.org/1999/xlink" x="0px" y="0px"
	 viewBox="0 0 512.001 512.001" style="enable-background:new 0 0 512.001 512.001;" xml:space="preserve">
<polyline style="fill:#1D71B8;" points="374.811,103.882 374.811,79.874 135.616,79.874 135.616,103.882 "/>
<polyline style="fill:#36A9E1;" points="303.664,103.882 303.664,79.874 135.616,79.874 135.616,103.882 "/>
<path style="fill:#BB8526;" d="M503.723,512H7.579l0,0c0-106.07,85.986-192.056,192.055-192.056h112.033
	C417.737,319.944,503.723,405.93,503.723,512L503.723,512z"/>
<g>
	<path style="fill:#F9B233;" d="M399.693,512v-16.005l-24.007-16.005l48.014-56.017l-56.017-96.028c0,0-17.314,36.239-56.017,56.017
		l-0.652,128.037h88.678V512z"/>
	<path style="fill:#F9B233;" d="M111.563,512v-16.005l24.007-16.005l-48.014-56.017l56.017-96.028c0,0,17.314,36.239,56.017,56.017
		l0.652,128.037h-88.678V512z"/>
</g>
<path style="fill:#36A9E1;" d="M310.753,512H199.635V383.963c0,0,23.212,16.227,56.017,16.005
	c38.305-0.259,56.017-16.005,56.017-16.005L310.753,512z"/>
<path style="fill:#1D71B8;" d="M310.753,512l0.915-128.037c0,0-17.712,15.746-56.017,16.005L254.526,512H310.753z"/>
<circle style="fill:#FFFFFF;" cx="255.653" cy="431.973" r="24.007"/>
<path style="fill:#BB8526;" d="M135.616,79.874L135.616,79.874c0-39.775,32.245-72.02,72.021-72.02h96.027
	c39.776,0,72.021,32.245,72.021,72.02l0,0"/>
<path style="fill:#F9B233;" d="M135.616,79.874L135.616,79.874c0-39.775,22.571-72.02,50.415-72.02h67.219
	c27.843,0,50.414,32.245,50.414,72.02l0,0"/>
<path style="fill:#E8C0A8;" d="M379.836,175.902c13.259,0,24.007,10.748,24.007,24.007c0,13.258-10.748,24.007-24.007,24.007"/>
<g>
	<path style="fill:#F3D1BB;" d="M130.416,223.917c-13.259,0-24.007-10.749-24.007-24.007c0-13.259,10.748-24.007,24.007-24.007"/>
	<path style="fill:#F3D1BB;" d="M375.686,119.886v160.046c0,66.293-53.741,120.035-120.035,120.035l0,0
		c-66.293,0-120.035-53.741-120.035-120.035V119.886"/>
</g>
<path style="fill:#E8C0A8;" d="M255.651,127.888v272.08l0,0c66.293,0,120.035-52.206,120.035-116.605V127.888"/>
<rect x="295.812" y="183.902" style="fill:#1D1D1B;" width="15.707" height="48.014"/>
<rect x="183.63" y="152.047" style="fill:#878787;" width="40.012" height="15.707"/>
<rect x="287.665" y="152.047" style="fill:#9D9D9C;" width="40.012" height="15.707"/>
<circle style="fill:#FFFFFF;" cx="207.641" cy="207.913" r="32.009"/>
<path style="fill:#9D9D9C;" d="M319.669,335.949c-8.839,0-16.005-7.166-16.005-16.005v-8.002c0-13.259-10.748-24.007-24.007-24.007
	c-13.259,0-24.007,10.748-24.007,24.007s10.748,24.007,24.007,24.007H319.669"/>
<path style="fill:#878787;" d="M191.632,335.949c8.839,0,16.005-7.166,16.005-16.005v-8.002c0-13.259,10.748-24.007,24.007-24.007
	c13.259,0,24.007,10.748,24.007,24.007s-10.748,24.007-24.007,24.007H191.632"/>
<path style="fill:#BB8526;" d="M387.689,127.888H123.612c-6.63,0-12.004-5.374-12.004-12.004l0,0c0-6.63,5.374-12.004,12.004-12.004
	h264.077c6.63,0,12.004,5.374,12.004,12.004l0,0C399.693,122.515,394.319,127.888,387.689,127.888z"/>
<path style="fill:#F9B233;" d="M299.663,127.888H123.612c-6.63,0-12.004-5.374-12.004-12.004l0,0c0-6.63,5.374-12.004,12.004-12.004
	h176.051c6.63,0,12.004,5.374,12.004,12.004l0,0C311.667,122.515,306.294,127.888,299.663,127.888z"/>
<g>
	<rect x="167.776" y="255.925" style="fill:#1D1D1B;" width="15.707" height="16.005"/>
	<rect x="167.776" y="279.936" style="fill:#1D1D1B;" width="15.707" height="16.005"/>
	<rect x="167.776" y="303.937" style="fill:#1D1D1B;" width="15.707" height="16.005"/>
	<rect x="167.776" y="327.949" style="fill:#1D1D1B;" width="15.707" height="16.005"/>
	<rect x="167.776" y="399.972" style="fill:#1D1D1B;" width="15.707" height="16.005"/>
	<rect x="167.776" y="423.973" style="fill:#1D1D1B;" width="15.707" height="16.005"/>
	<rect x="167.776" y="447.984" style="fill:#1D1D1B;" width="15.707" height="16.005"/>
	<rect x="167.776" y="471.985" style="fill:#1D1D1B;" width="15.707" height="16.005"/>
	<rect x="167.933" y="495.996" style="fill:#1D1D1B;" width="15.707" height="16.005"/>
	<path style="fill:#1D1D1B;" d="M183.481,239.594c6.708,5.127,15.08,8.181,24.156,8.181c21.981,0,39.863-17.882,39.863-39.863
		s-17.882-39.863-39.863-39.863s-39.863,17.882-39.863,39.863v40.012h15.707L183.481,239.594L183.481,239.594z M207.637,183.756
		c13.32,0,24.156,10.836,24.156,24.156c0,13.32-10.836,24.156-24.156,24.156s-24.156-10.836-24.156-24.156
		C183.481,194.592,194.317,183.756,207.637,183.756z"/>
	<path style="fill:#1D1D1B;" d="M247.5,263.927h-15.707v8.002c0,2.877,0.512,5.636,1.449,8.191c-0.53-0.026-1.062-0.041-1.598-0.041
		c-17.568,0-31.861,14.293-31.861,31.861v8.002c0,4.494-3.657,8.151-8.151,8.151v15.707h40.012c9.57,0,18.162-4.247,24.007-10.949
		c5.845,6.702,14.437,10.949,24.007,10.949h40.012v-15.707c-4.494,0-8.151-3.657-8.151-8.151v-8.002
		c0-17.568-14.293-31.861-31.861-31.861c-0.536,0-1.068,0.015-1.598,0.041c0.937-2.555,1.449-5.314,1.449-8.191v-8.002h-15.707
		v8.002c0,4.494-3.657,8.151-8.151,8.151s-8.151-3.657-8.151-8.151V263.927z M279.657,295.788c8.907,0,16.153,7.246,16.153,16.153
		v8.002c0,2.861,0.507,5.606,1.435,8.151h-17.587c-8.907,0-16.153-7.246-16.153-16.153S270.751,295.788,279.657,295.788z
		 M247.798,311.943c0,8.907-7.246,16.153-16.153,16.153h-17.587c0.928-2.545,1.435-5.29,1.435-8.151v-8.002
		c0-8.907,7.246-16.153,16.153-16.153C240.552,295.789,247.798,303.036,247.798,311.943z"/>
</g>
<rect x="119.607" y="408.119" style="fill:#FFFFFF;" width="16.005" height="15.707"/>
<g>
	<polygon style="fill:#1D1D1B;" points="87.454,512 71.746,512 71.746,479.842 63.595,479.842 63.595,464.134 87.454,464.134 	"/>
	<path style="fill:#1D1D1B;" d="M471.192,391.502c-24.024-31.757-57.553-55.965-95.029-68.77c4.77-13.388,7.377-27.794,7.377-42.799
		v-48.163h0.149c17.568,0,31.861-14.293,31.861-31.861s-14.293-31.861-31.861-31.861h-0.149v-32.307h4.15
		c10.949,0,19.857-8.908,19.857-19.857s-8.908-19.857-19.857-19.857h-4.46l-0.081-24.007C379.191,31.651,345.058,0,303.664,0
		h-96.027c-41.393,0-75.825,31.665-79.784,72.035l-0.091,23.994h-4.15c-10.949,0-19.857,8.908-19.857,19.857
		s8.908,19.857,19.857,19.857h4.15v32.307h-0.149c-17.568,0-31.861,14.293-31.861,31.861s14.293,31.861,31.861,31.861h0.149v48.163
		c0,15.085,2.636,29.564,7.456,43.013c-37.226,12.858-70.52,36.977-94.412,68.559C14.388,426.428,0.425,468.095,0.425,512h15.707
		c0-40.456,12.864-78.846,37.201-111.019c18.749-24.785,43.778-44.574,71.97-57.223l-47.3,81.085l45.882,53.53l-20.129,13.419V512
		h15.707v-11.803l27.884-18.589l-50.145-58.504l46.982-80.54c7.113,12.608,16.303,23.895,27.103,33.395h-3.511v16.005h15.707v-6.511
		c2.692,1.847,5.464,3.586,8.3,5.227v121.318h15.707V398.385c9.243,3.77,19.016,6.499,29.182,8.019
		c-7.811,5.812-12.88,15.112-12.88,25.573c0,8.08,3.028,15.461,8.002,21.083V512h15.707v-49.224
		c2.603,0.689,5.334,1.061,8.151,1.061c2.817,0,5.548-0.372,8.151-1.061V512h15.707v-58.94c4.974-5.622,8.002-13.004,8.002-21.083
		c0-10.458-5.066-19.755-12.872-25.566c10.222-1.528,20.049-4.277,29.336-8.082V512h15.707V390.598
		c19.771-11.483,36.188-28.119,47.428-48.045l46.989,80.553l-50.145,58.504l27.884,18.589v11.802h15.707v-20.208l-20.13-13.42
		l45.882-53.53l-47.547-81.509c28.578,12.627,53.955,32.582,72.914,57.643c24.339,32.173,37.203,70.564,37.203,111.022h15.707
		C511.576,468.093,497.612,426.425,471.192,391.502z M127.762,216.063h-0.149c-8.907,0-16.153-7.246-16.153-16.153
		c0-8.907,7.246-16.153,16.153-16.153h0.149V216.063z M383.688,183.756c8.907,0,16.153,7.246,16.153,16.153
		c0,8.907-7.246,16.153-16.153,16.153h-0.149v-32.307L383.688,183.756L383.688,183.756z M207.637,15.707h96.027
		c32.722,0,59.782,24.626,63.669,56.314H143.968C147.855,40.333,174.915,15.707,207.637,15.707z M143.469,87.729h224.654v8.3
		H143.469V87.729z M123.612,120.035c-2.288,0-4.15-1.862-4.15-4.15c0-2.288,1.862-4.15,4.15-4.15h264.077
		c2.288,0,4.15,1.862,4.15,4.15c0,2.288-1.862,4.15-4.15,4.15H123.612z M255.651,448.131c-8.907,0-16.153-7.246-16.153-16.153
		c0-8.907,7.246-16.153,16.153-16.153s16.153,7.246,16.153,16.153C271.805,440.884,264.558,448.131,255.651,448.131z
		 M367.832,279.933c0,59.217-46.121,107.857-104.327,111.902v-7.873h-15.707v7.851c-24.396-1.697-46.673-11.208-64.315-26.07v-13.79
		h-13.767c-16.369-19.501-26.245-44.628-26.245-72.02V135.742h224.363v144.191H367.832z"/>
</g>
<rect x="375.689" y="408.119" style="fill:#FFFFFF;" width="16.005" height="15.707"/>
<polygon style="fill:#1D1D1B;" points="439.556,512 423.849,512 423.849,464.134 447.706,464.134 447.706,479.842 439.556,479.842 
	"/>
<g>
</g>
<g>
</g>
<g>
</g>
<g>
</g>
<g>
</g>
<g>
</g>
<g>
</g>
<g>
</g>
<g>
</g>
<g>
</g>
<g>
</g>
<g>
</g>
<g>
</g>
<g>
</g>
<g>
</g>
</svg>
